<svg width="40" height="40" viewBox="0 0 40 40" fill="none" xmlns="http://www.w3.org/2000/svg">
<path fill-rule="evenodd" clip-rule="evenodd" d="M12.9741 3.89259C13.6946 4.34805 13.6884 5.34238 13.0855 5.94465L9.2432 9.78305L5.40085 13.6216C4.79798 14.2238 3.80265 14.2301 3.3468 13.5103C2.64611 12.4039 2.26562 11.113 2.26562 9.78305C2.26562 7.93437 3.00077 6.16144 4.30931 4.8542C5.61787 3.54696 7.39262 2.8125 9.2432 2.8125C10.5745 2.8125 11.8666 3.19266 12.9741 3.89259ZM26.9477 3.89259C26.2273 4.34805 26.2335 5.34238 26.8363 5.94465L30.6787 9.78305L34.521 13.6216C35.1239 14.2238 36.1192 14.2301 36.5751 13.5103C37.2758 12.4039 37.6562 11.113 37.6562 9.78305C37.6562 7.93437 36.9211 6.16144 35.6126 4.8542C34.304 3.54696 32.5293 2.8125 30.6787 2.8125C29.3473 2.8125 28.0552 3.19266 26.9477 3.89259Z" fill="#FFA26E"/>
<path fill-rule="evenodd" clip-rule="evenodd" d="M27.648 33.9249C25.4086 35.2549 22.7934 36.0185 20 36.0185C17.2337 36.0185 14.6423 35.2695 12.4173 33.9634L9.80156 36.5795C8.99094 37.3902 7.67665 37.3902 6.86599 36.5795C6.0554 35.7688 6.0554 34.4544 6.86599 33.6437L9.14211 31.3674C6.57574 28.6755 5 25.0302 5 21.0171C5 12.732 11.7157 6.01562 20 6.01562C28.2843 6.01562 35 12.732 35 21.0171C35 25.0038 33.445 28.6272 30.9085 31.314L33.2379 33.6437C34.0485 34.4544 34.0485 35.7688 33.2379 36.5795C32.4273 37.3902 31.113 37.3902 30.3023 36.5795L27.648 33.9249Z" fill="#D5DBE1"/>
<path fill-rule="evenodd" clip-rule="evenodd" d="M19.9932 11.25C20.7305 11.25 21.3281 11.8413 21.3281 12.5705V20.6694C21.3281 21.0184 21.1885 21.3532 20.9397 21.6006L16.7346 25.7826C16.2146 26.2997 15.3694 26.3019 14.8467 25.7876C14.3239 25.2733 14.3217 24.4372 14.8416 23.9201L18.6582 20.1245V12.5705C18.6582 11.8413 19.256 11.25 19.9932 11.25Z" fill="#737A83"/>
</svg>
