<svg width="40" height="40" viewBox="0 0 40 40" fill="none" xmlns="http://www.w3.org/2000/svg">
<path fill-rule="evenodd" clip-rule="evenodd" d="M20 15.0108C20.5469 15.0108 20.9903 14.5486 20.9903 13.9785V5.03226C20.9903 4.46216 20.5469 4 20 4C19.4532 4 19.0098 4.46216 19.0098 5.03226V13.9785C19.0098 14.5486 19.4532 15.0108 20 15.0108ZM10.1027 27.0538H4.63105C4.08417 27.0538 3.64078 27.5159 3.64078 28.086C3.64078 28.6561 4.08417 29.1183 4.63105 29.1183H35.6595C36.2063 29.1183 36.6497 28.6561 36.6497 28.086C36.6497 27.5159 36.2063 27.0538 35.6595 27.0538H29.8974C29.9009 26.9395 29.9027 26.8248 29.9027 26.7097C29.9027 21.0087 25.4691 16.3871 20 16.3871C14.531 16.3871 10.0973 21.0087 10.0973 26.7097C10.0973 26.8248 10.0991 26.9395 10.1027 27.0538ZM29.7195 20.8602C29.993 21.3539 30.5985 21.5231 31.0722 21.238L38.5047 16.7649C38.9784 16.4799 39.1406 15.8485 38.8672 15.3548C38.5937 14.8611 37.9881 14.692 37.5144 14.977L30.082 19.4501C29.6083 19.7352 29.4459 20.3665 29.7195 20.8602ZM1.49536 16.7649C1.02166 16.4799 0.859354 15.8485 1.13287 15.3548C1.40639 14.8611 2.01193 14.692 2.48563 14.977L9.91812 19.4501C10.3918 19.7352 10.554 20.3665 10.2806 20.8602C10.0071 21.3539 9.40155 21.5231 8.92785 21.238L1.49536 16.7649ZM14.751 15.168C15.0245 15.6617 14.8622 16.2931 14.3885 16.5781C13.915 16.8631 13.3093 16.694 13.0358 16.2003L10.7251 12.0284C10.4518 11.5347 10.6141 10.9034 11.0876 10.6183C11.5613 10.3333 12.1669 10.5024 12.4404 10.9962L14.751 15.168ZM28.9125 10.6183C28.4388 10.3333 27.8332 10.5024 27.5597 10.9961L25.2491 15.168C24.9756 15.6617 25.1379 16.293 25.6116 16.5781C26.0851 16.8631 26.6908 16.694 26.9643 16.2002L29.2749 12.0284C29.5483 11.5347 29.386 10.9034 28.9125 10.6183ZM7.93194 30.4946C7.38507 30.4946 6.94167 30.9568 6.94167 31.5269C6.94167 32.097 7.38507 32.5591 7.93194 32.5591H32.3586C32.9054 32.5591 33.3488 32.097 33.3488 31.5269C33.3488 30.9568 32.9054 30.4946 32.3586 30.4946H7.93194ZM10.2426 34.9677C10.2426 34.3976 10.686 33.9355 11.2328 33.9355H29.0577C29.6045 33.9355 30.0479 34.3976 30.0479 34.9677C30.0479 35.5378 29.6045 36 29.0577 36H11.2328C10.686 36 10.2426 35.5378 10.2426 34.9677Z" fill="url(#paint0_linear_103_28)"/>
<defs>
<linearGradient id="paint0_linear_103_28" x1="1" y1="4" x2="26.5538" y2="43.9381" gradientUnits="userSpaceOnUse">
<stop offset="0.3125" stop-color="#FFCB46"/>
<stop offset="0.682292" stop-color="#FF8A58"/>
</linearGradient>
</defs>
</svg>
