<svg width="40" height="40" viewBox="0 0 40 40" fill="none" xmlns="http://www.w3.org/2000/svg">
<path fill-rule="evenodd" clip-rule="evenodd" d="M20 10.2121C20.4893 10.2121 20.8861 9.82546 20.8861 9.34848V1.86364C20.8861 1.38666 20.4893 1 20 1C19.5107 1 19.114 1.38666 19.114 1.86364V9.34848C19.114 9.82546 19.5107 10.2121 20 10.2121ZM28.8603 20C28.8603 24.7697 24.8934 28.6364 20 28.6364C15.1067 28.6364 11.1397 24.7697 11.1397 20C11.1397 15.2303 15.1067 11.3636 20 11.3636C24.8934 11.3636 28.8603 15.2303 28.8603 20ZM20.8861 38.1364C20.8861 38.6133 20.4893 39 20 39C19.5107 39 19.114 38.6133 19.114 38.1364V30.6515C19.114 30.1745 19.5107 29.7879 20 29.7879C20.4893 29.7879 20.8861 30.1745 20.8861 30.6515V38.1364ZM4.32924 29.8161C3.90541 30.0546 3.36361 29.9131 3.11888 29.5C2.87416 29.0869 3.01938 28.5587 3.44321 28.3202L10.0933 24.5778C10.5172 24.3393 11.059 24.4809 11.3037 24.8939C11.5483 25.307 11.4032 25.8352 10.9794 26.0737L4.32924 29.8161ZM28.6964 15.1061C28.9411 15.5191 29.4829 15.6606 29.9067 15.4222L36.5569 11.6797C36.9807 11.4413 37.1258 10.9131 36.8812 10.5C36.6365 10.0869 36.0947 9.9454 35.6708 10.1839L29.0207 13.9263C28.5969 14.1648 28.4516 14.693 28.6964 15.1061ZM3.44321 11.6797C3.01938 11.4413 2.87416 10.9131 3.11888 10.5C3.36361 10.0869 3.90541 9.9454 4.32924 10.1839L10.9794 13.9263C11.4032 14.1648 11.5483 14.693 11.3037 15.1061C11.059 15.5191 10.5172 15.6607 10.0933 15.4222L3.44321 11.6797ZM28.6964 24.8939C28.4516 25.307 28.5969 25.8352 29.0207 26.0737L35.6708 29.8161C36.0947 30.0546 36.6365 29.9131 36.8812 29.5C37.1258 29.0869 36.9807 28.5587 36.5569 28.3202L29.9067 24.5778C29.4829 24.3393 28.9411 24.4809 28.6964 24.8939ZM15.3035 10.3437C15.5483 10.7567 15.403 11.285 14.9792 11.5234C14.5555 11.7619 14.0136 11.6204 13.7688 11.2073L11.7014 7.71697C11.4569 7.30388 11.6021 6.77571 12.0258 6.5372C12.4496 6.29873 12.9914 6.44025 13.2361 6.85334L15.3035 10.3437ZM27.9743 33.4628C28.3981 33.2243 28.5434 32.6961 28.2986 32.2831L26.2312 28.7927C25.9865 28.3796 25.4447 28.2381 25.0209 28.4766C24.5972 28.7151 24.452 29.2433 24.6965 29.6563L26.7639 33.1467C27.0087 33.5597 27.5506 33.7013 27.9743 33.4628ZM13.7688 28.7927C14.0136 28.3797 14.5554 28.2381 14.9792 28.4766C15.4029 28.7151 15.5481 29.2433 15.3035 29.6563L13.2361 33.1467C12.9914 33.5598 12.4495 33.7013 12.0258 33.4628C11.6019 33.2243 11.4567 32.6961 11.7014 32.2831L13.7688 28.7927ZM27.9743 6.5372C27.5505 6.29873 27.0087 6.44025 26.7639 6.8533L24.6965 10.3437C24.4518 10.7567 24.597 11.2849 25.0209 11.5234C25.4446 11.7619 25.9865 11.6204 26.2312 11.2073L28.2986 7.71694C28.5432 7.30388 28.398 6.77567 27.9743 6.5372ZM9.07233 19.1364C9.56164 19.1364 9.95836 19.5231 9.95836 20C9.95836 20.477 9.56164 20.8637 9.07233 20.8637H4.93752C4.44822 20.8637 4.05149 20.477 4.05149 20C4.05149 19.5231 4.44822 19.1364 4.93752 19.1364H9.07233ZM35.9486 20C35.9486 19.523 35.5518 19.1363 35.0625 19.1363H30.9277C30.4384 19.1363 30.0417 19.523 30.0417 20C30.0417 20.4769 30.4384 20.8636 30.9277 20.8636H35.0625C35.5518 20.8636 35.9486 20.4769 35.9486 20Z" fill="url(#paint0_linear_103_30)"/>
<defs>
<linearGradient id="paint0_linear_103_30" x1="3" y1="1" x2="35.9796" y2="39.8364" gradientUnits="userSpaceOnUse">
<stop offset="0.3125" stop-color="#FFD646"/>
<stop offset="0.682292" stop-color="#FFBD70"/>
</linearGradient>
</defs>
</svg>
