<svg width="40" height="40" viewBox="0 0 40 40" fill="none" xmlns="http://www.w3.org/2000/svg">
<path d="M6.66671 10H13.3334V23.3333H6.66671C5.78266 23.3333 4.93486 22.9822 4.30974 22.357C3.68461 21.7318 3.33337 20.884 3.33337 20V13.3333C3.33337 12.4493 3.68461 11.6014 4.30974 10.9763C4.93486 10.3512 5.78266 10 6.66671 10Z" fill="#5096FF"/>
<path d="M10.4167 23.3333H6.25V35H10.4167V23.3333Z" fill="#5096FF"/>
<path d="M31.6666 11.6667C32.9926 11.6667 34.2645 12.1935 35.2021 13.1312C36.1398 14.0688 36.6666 15.3406 36.6666 16.6667C36.6666 17.9927 36.1398 19.2645 35.2021 20.2022C34.2645 21.1399 32.9926 21.6667 31.6666 21.6667V11.6667Z" fill="#5096FF"/>
<path d="M30.4834 31.1488L13.3334 23.3488V10.0154L30.4834 2.29874C30.6099 2.24019 30.749 2.21433 30.888 2.22348C31.0272 2.23263 31.1617 2.27651 31.2795 2.35114C31.3972 2.42576 31.4944 2.52874 31.562 2.65061C31.6297 2.77249 31.6657 2.90938 31.6667 3.04878V30.4655C31.6552 30.5992 31.6115 30.728 31.5395 30.8412C31.4675 30.9543 31.3694 31.0485 31.2532 31.1157C31.137 31.1827 31.0064 31.2207 30.8724 31.2265C30.7384 31.2322 30.6049 31.2057 30.4834 31.1488Z" fill="#CBDFFF"/>
</svg>
